<?xml version="1.0" standalone="no"?>
<!DOCTYPE svg PUBLIC "-//W3C//DTD SVG 20010904//EN"
 "http://www.w3.org/TR/2001/REC-SVG-20010904/DTD/svg10.dtd">
<svg version="1.0" xmlns="http://www.w3.org/2000/svg"
 width="512.000000pt" height="512.000000pt" viewBox="0 0 512.000000 512.000000"
 preserveAspectRatio="xMidYMid meet">

<g transform="translate(0.000000,512.000000) scale(0.100000,-0.100000)"
fill="#000000" stroke="none">
<path d="M2210 5113 c-14 -3 -432 -76 -930 -164 -498 -87 -925 -164 -950 -170
-187 -49 -320 -219 -320 -410 0 -61 608 -3530 636 -3629 22 -77 53 -127 118
-188 66 -62 136 -97 225 -111 77 -12 86 -11 535 69 187 33 340 59 341 57 1 -1
11 -18 23 -38 43 -71 123 -133 214 -165 44 -15 1829 -351 1918 -360 176 -19
356 91 427 261 14 31 142 695 347 1791 353 1884 347 1847 305 1959 -44 117
-136 214 -243 254 -56 21 -1832 357 -1941 367 -37 4 -84 0 -122 -9 l-62 -14
-11 71 c-25 152 -63 238 -141 315 -93 90 -241 136 -369 114z m186 -191 c46
-24 95 -73 118 -120 15 -29 646 -3564 646 -3618 0 -81 -66 -186 -141 -224 -44
-23 -1884 -351 -1969 -352 -30 0 -74 8 -98 17 -52 21 -128 103 -142 153 -22
83 -630 3557 -630 3602 0 96 85 204 181 230 22 6 455 85 962 175 977 174 996
177 1073 137z m1423 -623 c504 -93 937 -177 962 -185 100 -32 172 -134 171
-239 -1 -83 -647 -3516 -670 -3561 -39 -76 -112 -129 -194 -140 -32 -4 -289
40 -963 166 -506 94 -939 177 -962 185 -56 18 -119 66 -101 76 14 7 214 43
238 42 8 -1 62 -10 119 -22 101 -20 106 -20 140 -3 25 12 38 27 45 50 6 20 17
34 30 37 12 3 99 18 194 35 95 17 190 36 211 44 95 32 195 116 236 196 l21 41
13 -36 c15 -43 50 -62 125 -71 52 -6 57 -5 85 24 73 72 5 151 -131 152 -29 0
-42 -7 -64 -32 -17 -21 -25 -26 -20 -13 27 73 31 171 10 272 l-6 31 58 6 c257
27 463 123 625 293 120 127 197 260 241 421 29 106 32 364 4 462 -32 115 -76
217 -127 296 -234 358 -668 518 -1053 387 -38 -12 -70 -22 -71 -20 -1 1 -28
150 -60 330 -57 324 -57 329 -42 380 9 29 22 81 28 117 13 67 42 110 76 110
10 0 53 -7 96 -15 106 -20 114 -19 148 14 37 38 38 74 1 110 -22 23 -45 31
-126 46 -136 24 -209 11 -273 -48 -13 -11 -25 -18 -27 -16 -9 9 -38 200 -32
214 6 16 55 33 100 34 16 1 442 -76 945 -170z m-347 -1224 c150 -31 269 -97
383 -210 435 -433 234 -1165 -362 -1315 -53 -14 -105 -20 -150 -18 l-68 3 -12
65 c-18 97 -19 94 52 135 127 74 253 224 310 370 56 143 68 322 30 470 -25
101 -98 233 -173 315 -62 68 -184 160 -234 176 -16 5 -18 8 -7 15 22 13 156
10 231 -6z m-338 -149 c88 -31 155 -76 220 -147 93 -100 156 -259 156 -394 0
-139 -64 -295 -162 -400 -54 -58 -124 -113 -132 -104 -4 5 -186 1039 -186
1057 0 18 31 15 104 -12z"/>
<path d="M2045 4760 c-82 -16 -104 -24 -122 -45 -13 -14 -23 -35 -23 -46 0
-35 29 -78 57 -85 23 -6 146 7 209 22 13 4 31 -3 49 -18 23 -20 30 -39 45
-121 20 -114 42 -147 97 -147 43 0 83 38 83 77 0 54 -31 206 -50 242 -38 76
-111 126 -196 135 -28 3 -91 -3 -149 -14z"/>
<path d="M599 4504 c-84 -16 -125 -33 -168 -70 -44 -37 -81 -116 -81 -174 1
-70 35 -228 54 -249 37 -41 100 -34 132 14 16 24 16 32 -1 134 -24 153 -22
157 142 185 73 13 92 20 112 43 18 21 22 34 17 62 -11 71 -63 84 -207 55z"/>
<path d="M1025 4315 c-28 -27 -32 -81 -12 -150 23 -75 113 -91 154 -28 25 37
5 149 -32 181 -35 29 -79 29 -110 -3z"/>
<path d="M1291 4140 c-60 -13 -91 -43 -91 -90 0 -72 68 -100 169 -71 51 15 71
38 71 81 0 72 -52 100 -149 80z"/>
<path d="M915 4073 c-86 -19 -124 -57 -111 -109 15 -58 60 -74 158 -58 85 14
115 89 59 145 -29 28 -54 34 -106 22z"/>
<path d="M1113 3940 c-34 -14 -46 -47 -40 -113 6 -67 29 -107 70 -121 33 -12
70 4 93 39 15 22 15 35 6 93 -16 95 -60 130 -129 102z"/>
<path d="M1442 3825 c-40 -34 -42 -74 -6 -126 29 -42 33 -97 14 -169 -6 -24
-10 -76 -9 -117 l4 -74 -52 -28 -52 -29 -21 23 c-12 12 -30 51 -41 86 -39 130
-110 215 -199 239 -43 11 -65 6 -97 -23 -25 -22 -30 -65 -13 -98 6 -11 30 -28
54 -39 48 -23 75 -63 100 -152 9 -31 32 -78 52 -104 l37 -48 -24 -44 c-13 -24
-29 -48 -35 -53 -18 -15 -56 5 -123 64 -69 62 -126 92 -192 102 -55 8 -119 -8
-144 -35 -27 -30 -24 -84 6 -116 21 -23 29 -25 73 -20 56 6 103 -13 151 -63
36 -39 111 -87 148 -96 26 -7 27 -10 27 -70 0 -82 -19 -91 -137 -60 -119 31
-224 11 -294 -55 -50 -48 -53 -88 -9 -132 26 -25 36 -29 62 -24 18 3 41 15 53
26 32 30 74 34 166 15 56 -12 102 -15 141 -11 l58 7 27 -56 28 -56 -25 -19
c-14 -10 -52 -26 -85 -35 -108 -30 -191 -92 -226 -170 -24 -52 -24 -86 1 -118
43 -54 117 -41 145 26 20 48 52 71 140 101 44 16 100 43 124 61 l45 32 50 -29
c28 -17 52 -31 54 -33 9 -8 -26 -66 -72 -115 -87 -95 -125 -208 -96 -294 37
-112 183 -75 164 42 -8 48 6 77 77 157 29 33 62 82 74 110 l23 50 60 -3 c57
-4 61 -5 67 -32 3 -15 -1 -56 -10 -91 -25 -93 -17 -202 18 -262 34 -57 61 -77
107 -77 74 0 106 82 55 142 -30 35 -31 69 -10 181 9 46 13 100 9 130 l-6 52
54 28 53 28 22 -27 c12 -15 27 -48 33 -73 37 -146 136 -251 238 -251 61 0 100
53 81 109 -7 20 -24 36 -55 50 -51 24 -75 59 -104 150 -22 65 -40 101 -72 137
-19 21 -19 22 12 73 18 28 36 51 42 51 18 0 53 -23 105 -70 89 -81 190 -117
278 -98 76 16 109 86 66 139 -15 19 -31 24 -94 29 -75 7 -77 7 -141 64 -35 31
-89 68 -120 82 l-55 25 4 62 c4 62 4 62 37 65 18 2 68 -4 112 -13 123 -27 234
-1 291 67 70 83 -24 194 -109 127 -44 -35 -82 -40 -165 -23 -46 10 -102 14
-142 12 l-65 -5 -29 55 -29 54 25 19 c13 11 49 26 79 35 149 44 250 141 250
239 0 45 -39 85 -82 85 -31 0 -88 -47 -88 -72 0 -27 -47 -59 -121 -84 -77 -26
-147 -63 -168 -87 -10 -13 -20 -10 -66 20 -49 32 -53 37 -44 60 5 14 34 52 64
86 79 87 100 135 100 229 0 66 -3 80 -23 101 -29 31 -61 38 -100 21 -34 -14
-51 -53 -44 -105 5 -45 -11 -77 -77 -152 -27 -31 -60 -80 -73 -107 l-23 -50
-62 0 -63 0 0 48 c0 26 5 65 11 86 29 104 8 222 -50 286 -48 54 -87 61 -129
25z m394 -659 c342 -170 264 -671 -115 -737 -167 -30 -343 67 -419 228 -24 51
-27 70 -27 158 0 92 3 106 32 167 50 106 150 190 260 218 21 5 73 8 117 5 66
-3 91 -9 152 -39z"/>
<path d="M2201 1844 c-35 -29 -40 -69 -20 -150 13 -50 39 -74 82 -74 80 0 104
67 66 188 -10 31 -51 62 -83 62 -8 0 -28 -12 -45 -26z"/>
<path d="M2475 1665 c-5 -2 -22 -6 -38 -9 -69 -16 -93 -104 -39 -146 23 -19
35 -21 85 -16 64 6 111 27 121 51 24 64 -16 126 -81 124 -21 0 -42 -2 -48 -4z"/>
<path d="M2050 1589 c-86 -24 -106 -121 -33 -160 19 -10 38 -11 90 -2 74 13
99 32 109 80 5 27 1 37 -24 63 -33 32 -72 38 -142 19z"/>
<path d="M2828 1554 c-39 -21 -44 -55 -25 -168 24 -141 16 -152 -137 -176 -97
-16 -136 -44 -136 -96 0 -44 37 -84 77 -84 34 0 176 26 222 41 43 14 107 72
131 118 30 60 32 108 11 226 -17 92 -24 114 -46 133 -30 25 -59 27 -97 6z"/>
<path d="M2263 1444 c-24 -24 -25 -31 -20 -91 5 -72 27 -111 69 -125 33 -11
72 4 94 37 25 38 6 150 -31 183 -35 30 -79 29 -112 -4z"/>
<path d="M939 1225 c-43 -23 -48 -57 -28 -170 22 -126 31 -151 77 -199 73 -76
150 -91 313 -60 116 22 153 60 125 128 -20 47 -54 57 -147 40 -113 -20 -144
-18 -167 10 -10 13 -24 57 -31 98 -19 110 -29 137 -61 153 -35 18 -48 18 -81
0z"/>
<path d="M4378 4024 c-47 -25 -52 -103 -8 -136 14 -10 63 -25 110 -34 47 -9
93 -20 103 -26 32 -17 38 -52 22 -136 -21 -109 -19 -138 10 -167 31 -32 75
-32 110 -2 22 19 29 40 47 137 20 110 20 117 4 172 -19 67 -62 120 -118 149
-31 16 -222 61 -248 59 -3 -1 -17 -7 -32 -16z"/>
<path d="M4092 3825 c-23 -20 -32 -38 -42 -89 -13 -70 -7 -93 32 -120 60 -42
118 -3 137 92 10 53 10 66 -4 92 -15 29 -49 50 -80 50 -7 0 -27 -11 -43 -25z"/>
<path d="M3810 3632 c-20 -20 -30 -40 -30 -60 0 -48 28 -73 101 -88 57 -12 68
-11 98 4 43 21 58 60 41 102 -14 34 -56 55 -127 65 -50 6 -55 5 -83 -23z"/>
<path d="M4195 3555 c-56 -55 -19 -125 77 -144 93 -20 143 7 141 75 -2 62 -54
94 -151 94 -32 0 -49 -6 -67 -25z"/>
<path d="M4033 3450 c-30 -12 -51 -57 -59 -124 -6 -52 -5 -57 24 -85 36 -37
71 -40 107 -8 43 37 60 157 28 196 -21 24 -68 35 -100 21z"/>
<path d="M3613 1265 c-23 -16 -37 -53 -48 -121 -5 -35 -2 -46 20 -72 21 -25
35 -32 61 -32 47 0 79 34 93 99 15 71 15 75 -15 110 -29 35 -75 41 -111 16z"/>
<path d="M3721 1003 c-12 -10 -24 -34 -27 -54 -11 -65 51 -108 157 -109 68 0
105 74 66 133 -28 43 -157 62 -196 30z"/>
<path d="M3532 867 c-25 -27 -45 -110 -37 -154 10 -56 82 -83 132 -48 23 16
43 83 43 143 0 74 -88 112 -138 59z"/>
<path d="M4079 772 c-17 -15 -27 -42 -43 -122 -18 -88 -25 -106 -48 -123 -27
-20 -28 -20 -129 -2 -90 17 -104 17 -127 4 -61 -34 -66 -101 -12 -140 34 -25
211 -54 271 -45 62 9 133 58 165 111 27 48 68 236 59 273 -14 58 -88 82 -136
44z"/>
</g>
</svg>
